<svg xmlns="http://www.w3.org/2000/svg" width="94" height="94" viewBox="0 0 94 94">
  <defs>
    <style>
      .cls-1 {
        fill-rule: evenodd;
        fill: white;
      }
    </style>
  </defs>
  <path id="gear" class="cls-1" d="M39.765,74.414l-1.083-8.706a10.247,10.247,0,0,1-1.659-.816q-0.778-.476-1.523-1.02l-8.056,3.4L20,54.349l6.973-5.305a6.516,6.516,0,0,1-.068-0.918V46.289a6.51,6.51,0,0,1,.068-0.918L20,40.065l7.446-12.923,8.056,3.4a18.378,18.378,0,0,1,1.557-1.02,13.585,13.585,0,0,1,1.625-.816L39.765,20H54.658l1.083,8.706a10.239,10.239,0,0,1,1.659.816q0.779,0.476,1.523,1.02l8.056-3.4,7.447,12.923-6.973,5.305a6.51,6.51,0,0,1,.068.918v1.837a3.36,3.36,0,0,1-.135.918l6.973,5.305L66.911,67.272l-7.988-3.4a18.46,18.46,0,0,1-1.557,1.02,13.593,13.593,0,0,1-1.625.816l-1.083,8.706H39.765ZM44.5,68.973h5.348l0.948-7.21a15.133,15.133,0,0,0,3.892-1.6,16.185,16.185,0,0,0,3.283-2.551l6.7,2.789,2.64-4.625L61.5,51.356a9.648,9.648,0,0,0,.474-2.006,17.032,17.032,0,0,0,0-4.285,9.64,9.64,0,0,0-.474-2.007l5.822-4.421-2.64-4.625-6.7,2.857A14.871,14.871,0,0,0,50.8,32.651l-0.88-7.21H44.572l-0.948,7.21a15.129,15.129,0,0,0-3.893,1.6A16.185,16.185,0,0,0,36.448,36.8l-6.7-2.789-2.64,4.625,5.822,4.353a11.114,11.114,0,0,0-.474,2.041,16.557,16.557,0,0,0-.135,2.177,16.014,16.014,0,0,0,.135,2.109,11.112,11.112,0,0,0,.474,2.04l-5.822,4.421,2.64,4.625,6.7-2.857a14.871,14.871,0,0,0,7.176,4.217Zm2.843-12.243a9.5,9.5,0,0,0,9.477-9.522,9.5,9.5,0,0,0-9.477-9.522,9.078,9.078,0,0,0-6.736,2.789,9.64,9.64,0,0,0,0,13.467A9.078,9.078,0,0,0,47.347,56.729Z"/>
</svg>
