<svg xmlns="http://www.w3.org/2000/svg" width="94" height="94" viewBox="0 0 94 94">
  <defs>
    <style>
      .cls-1 {
        fill-rule: evenodd;
        fill: white;
      }
    </style>
  </defs>
  <path id="ic_language" class="cls-1" d="M46.925,75.366a27.375,27.375,0,0,1-10.963-2.228,28.5,28.5,0,0,1-15.1-15.1,28.173,28.173,0,0,1,0-21.961,28.6,28.6,0,0,1,15.1-15.065,28.173,28.173,0,0,1,21.961,0A28.695,28.695,0,0,1,72.988,36.077a28.173,28.173,0,0,1,0,21.961,28.6,28.6,0,0,1-15.065,15.1A27.3,27.3,0,0,1,46.925,75.366Zm0-5.8a35.942,35.942,0,0,0,3.183-5.3,33.484,33.484,0,0,0,2.193-5.87H41.55a33.476,33.476,0,0,0,2.193,5.87A35.942,35.942,0,0,0,46.925,69.566ZM39.57,68.434a39.2,39.2,0,0,1-2.228-4.845,41.539,41.539,0,0,1-1.591-5.2H27.4a23.476,23.476,0,0,0,5.128,6.153A20.356,20.356,0,0,0,39.57,68.434Zm14.711,0a20.356,20.356,0,0,0,7.037-3.89,23.474,23.474,0,0,0,5.128-6.153H58.1a41.556,41.556,0,0,1-1.591,5.2A39.2,39.2,0,0,1,54.281,68.434ZM25,52.733h9.619q-0.212-1.414-.318-2.794t-0.106-2.864q0-1.485.106-2.864t0.318-2.794H25a24.2,24.2,0,0,0-.53,2.794,23.292,23.292,0,0,0,0,5.729A24.2,24.2,0,0,0,25,52.733Zm15.277,0h13.3q0.212-1.414.318-2.794T54,47.075q0-1.485-.106-2.864t-0.318-2.794h-13.3q-0.212,1.414-.318,2.794t-0.106,2.864q0,1.485.106,2.864T40.277,52.733Zm18.955,0h9.619a24.263,24.263,0,0,0,.53-2.794,23.292,23.292,0,0,0,0-5.729,24.268,24.268,0,0,0-.53-2.794H59.232q0.212,1.414.318,2.794t0.106,2.864q0,1.485-.106,2.864T59.232,52.733ZM58.1,35.759h8.346a23.477,23.477,0,0,0-5.128-6.153,20.356,20.356,0,0,0-7.037-3.89,39.2,39.2,0,0,1,2.228,4.845A41.561,41.561,0,0,1,58.1,35.759Zm-16.55,0H52.3a33.484,33.484,0,0,0-2.193-5.87,35.942,35.942,0,0,0-3.183-5.3,35.942,35.942,0,0,0-3.183,5.3A33.476,33.476,0,0,0,41.55,35.759Zm-14.145,0H35.75a41.544,41.544,0,0,1,1.591-5.2,39.2,39.2,0,0,1,2.228-4.845,20.356,20.356,0,0,0-7.037,3.89A23.479,23.479,0,0,0,27.4,35.759Z"/>
</svg>
