<?xml version="1.0" encoding="utf-8"?>
<!-- Generator: Adobe Illustrator 24.0.0, SVG Export Plug-In . SVG Version: 6.00 Build 0)  -->
<svg version="1.1" xmlns="http://www.w3.org/2000/svg" xmlns:xlink="http://www.w3.org/1999/xlink" x="0px" y="0px"
	 viewBox="0 0 491.52 491.52" style="enable-background:new 0 0 491.52 491.52;" xml:space="preserve">
<style type="text/css">
	.st0{enable-background:new    ;}
	.st1{fill-rule:evenodd;clip-rule:evenodd;fill:#51A331;}
	.st2{fill-rule:evenodd;clip-rule:evenodd;fill:#FFFFFF;}
</style>
<g id="caja_verde_1_" class="st0">
	<g id="caja_verde">
		<g>
			<path class="st1" d="M454.58,6.14H36.52c-17.12,0-31,13.82-31,30.86v418.27c0,17.04,13.88,30.86,31,30.86h418.07
				c17.12,0,31-13.82,31-30.86V37.01C485.59,19.96,471.71,6.14,454.58,6.14z"/>
		</g>
	</g>
</g>
<g id="api_1_" class="st0">
	<g id="api">
		<g>
			<path class="st2" d="M245.78,212.97c-17.99,0-32.58,14.68-32.58,32.8c0,18.11,14.59,32.8,32.58,32.8
				c17.99,0,32.58-14.68,32.58-32.8C278.36,227.66,263.77,212.97,245.78,212.97z M461.12,0H30.44C13.66,0,0.05,13.61,0.05,30.39
				v430.75c0,16.78,13.61,30.39,30.39,30.39h430.68c16.79,0,30.39-13.61,30.39-30.39V30.39C491.52,13.61,477.91,0,461.12,0z
				 M236.79,474.8H40.77c-16.79,0-22.65-5.88-22.65-22.67V39.4c0-16.78,5.87-22.67,22.65-22.67h196.02v119.08
				c-56.31,4.61-100.58,52.07-100.58,109.95c0,57.87,44.27,105.33,100.58,109.94V474.8z M173.96,245.77
				c0-39.93,32.15-72.3,71.82-72.3c39.66,0,71.82,32.37,71.82,72.3c0,39.93-32.15,72.3-71.82,72.3
				C206.11,318.07,173.96,285.7,173.96,245.77z M473.45,452.13c0,16.78-5.87,22.67-22.65,22.67H254.76V355.71
				c56.32-4.6,100.6-52.06,100.6-109.94c0-57.88-44.28-105.35-100.6-109.95V16.74H450.8c16.79,0,22.65,5.88,22.65,22.67V452.13z
				 M405.58,211.6v-67.94c0-4.58-3.71-8.29-8.3-8.29h-33.69c-4.58,0-8.3,3.71-8.3,8.29c0,4.58,3.71,8.29,8.3,8.29h25.37v63.19
				c0,2.27,0.93,4.43,2.56,6l26.1,24.94l-26.08,24.94c-1.64,1.57-2.56,3.73-2.56,6v63.19h-25.4c-4.58,0-8.3,3.71-8.3,8.29
				s3.71,8.29,8.3,8.29h33.69v0c4.58,0,8.3-3.71,8.3-8.29v-67.94l29.81-28.49c0.09-0.09,0.18-0.18,0.27-0.27
				c3.16-3.31,3.05-8.56-0.27-11.73L405.58,211.6z M127.66,340.21h-25.37v-63.19c0-2.26-0.93-4.43-2.56-6l-26.1-24.94l26.08-24.94
				c1.64-1.57,2.56-3.73,2.56-6v-63.19h25.37c4.58,0,8.3-3.71,8.3-8.29c0-4.58-3.71-8.29-8.3-8.29H93.97c-4.58,0-8.3,3.71-8.3,8.29
				v67.94l-29.8,28.49c-0.09,0.09-0.18,0.18-0.27,0.27c-3.16,3.31-3.05,8.56,0.27,11.73l29.8,28.49v67.94c0,4.58,3.71,8.29,8.3,8.29
				h33.69c4.58,0,8.3-3.71,8.3-8.29S132.24,340.21,127.66,340.21z"/>
		</g>
	</g>
</g>
</svg>
