<?xml version="1.0" encoding="utf-8"?>
<!-- Generator: Adobe Illustrator 24.0.0, SVG Export Plug-In . SVG Version: 6.00 Build 0)  -->
<svg version="1.1" xmlns="http://www.w3.org/2000/svg" xmlns:xlink="http://www.w3.org/1999/xlink" x="0px" y="0px"
	 viewBox="0 0 491.52 491.52" style="enable-background:new 0 0 491.52 491.52;" xml:space="preserve">
<style type="text/css">
	.st0{enable-background:new    ;}
	.st1{fill-rule:evenodd;clip-rule:evenodd;}
	.st2{fill-rule:evenodd;clip-rule:evenodd;fill:#FFFFFF;}
</style>
<g id="caja_verde_1_" class="st0">
	<g id="caja_verde">
		<g>
			<path class="st1" d="M454.58,6.14H36.52c-17.12,0-31,13.82-31,30.86v418.27c0,17.04,13.88,30.86,31,30.86h418.07
				c17.12,0,31-13.82,31-30.86V37.01C485.59,19.96,471.71,6.14,454.58,6.14z"/>
		</g>
	</g>
</g>
<g id="normal_1_" class="st0">
	<g id="normal">
		<g>
			<path class="st2" d="M461.12,0H30.44C13.66,0,0.05,13.61,0.05,30.39v430.75c0,16.78,13.61,30.39,30.39,30.39h430.68
				c16.79,0,30.39-13.61,30.39-30.39V30.39C491.52,13.61,477.91,0,461.12,0z M236.79,474.8H40.77c-16.79,0-22.65-5.88-22.65-22.67
				V39.4c0-16.78,5.87-22.67,22.65-22.67h196.02v119.08c-56.31,4.61-100.58,52.07-100.58,109.95c0,57.87,44.27,105.33,100.58,109.94
				V474.8z M173.96,245.77c0-39.93,32.15-72.3,71.82-72.3c39.66,0,71.82,32.37,71.82,72.3c0,39.93-32.15,72.3-71.82,72.3
				C206.11,318.07,173.96,285.7,173.96,245.77z M473.45,452.13c0,16.78-5.87,22.67-22.65,22.67H254.76V355.71
				c56.32-4.6,100.6-52.06,100.6-109.94c0-57.88-44.28-105.35-100.6-109.95V16.74H450.8c16.79,0,22.65,5.88,22.65,22.67V452.13z
				 M245.78,212.97c-17.99,0-32.58,14.68-32.58,32.8c0,18.11,14.59,32.8,32.58,32.8c17.99,0,32.58-14.68,32.58-32.8
				C278.36,227.66,263.77,212.97,245.78,212.97z"/>
		</g>
	</g>
</g>
</svg>
